<svg xmlns="http://www.w3.org/2000/svg" width="220" height="247.249" viewBox="0 0 220 247.249">
  <g id="Group_161" data-name="Group 161" transform="translate(-873 -715)">
    <g id="Ellipse_53" data-name="Ellipse 53" transform="translate(909 888.249)" fill="#dfdfdf" stroke="#707070" stroke-width="1">
      <ellipse cx="74" cy="37" rx="74" ry="37" stroke="none"/>
      <ellipse cx="74" cy="37" rx="73.5" ry="36.5" fill="none"/>
    </g>
    <g id="Group_146" data-name="Group 146" transform="translate(873 715)">
      <g id="Ellipse_34" data-name="Ellipse 34" transform="translate(4 10.249)" fill="#000d0d" stroke="#707070" stroke-width="1">
        <circle cx="106" cy="106" r="106" stroke="none"/>
        <circle cx="106" cy="106" r="105.5" fill="none"/>
      </g>
      <path id="Subtraction_7" data-name="Subtraction 7" d="M110,222a108.478,108.478,0,0,1-42.816-8.723A110.9,110.9,0,0,1,8.645,154.2,111.561,111.561,0,0,1,32.219,32.508,109.559,109.559,0,0,1,67.182,8.723a109.426,109.426,0,0,1,85.634,0,109.572,109.572,0,0,1,34.966,23.785,111.569,111.569,0,0,1,0,156.979,109.667,109.667,0,0,1-34.966,23.789A108.475,108.475,0,0,1,110,222Zm0-217.42C51.845,4.578,4.535,52.316,4.535,111S51.845,217.416,110,217.416,215.46,169.676,215.46,111,168.15,4.578,110,4.578Z" transform="translate(0 2.249)" fill="#6f6f6f"/>
      <g id="Group_147" data-name="Group 147" transform="translate(21.154 25.384)">
        <g id="Ellipse_46" data-name="Ellipse 46" transform="translate(-0.154 -0.135)" fill="#f1d533" stroke="#707070" stroke-width="1">
          <circle cx="90" cy="90" r="90" stroke="none"/>
          <circle cx="90" cy="90" r="89.5" fill="none"/>
        </g>
        <g id="Group_147-2" data-name="Group 147" transform="translate(45.734 55.31)">
          <g id="Subtraction_9" data-name="Subtraction 9" transform="translate(0)" fill="#7e5115">
            <path d="M 26.82784461975098 33.78313446044922 C 26.59708213806152 26.71342849731445 21.81125450134277 21.04850959777832 15.96149921417236 21.04850959777832 C 10.111891746521 21.04850959777832 5.326208114624023 26.71288681030273 5.095451831817627 33.78258895874023 C 2.161391496658325 30.13819122314453 0.4999996423721313 25.17606925964355 0.4999996423721313 19.95055961608887 C 0.4999996423721313 14.73518085479736 2.121199607849121 9.836180686950684 5.064939498901367 6.15600061416626 C 7.983239650726318 2.508690595626831 11.85305976867676 0.5000004768371582 15.96149921417236 0.5000004768371582 C 20.06955909729004 0.5000004768371582 23.93885040283203 2.508680582046509 26.85661888122559 6.156020641326904 C 29.80035018920898 9.835840225219727 31.42153930664063 14.73483085632324 31.42153930664063 19.95055961608887 C 31.42153930664063 25.17480087280273 29.76090240478516 30.13697814941406 26.82784461975098 33.78313446044922 Z" stroke="none"/>
            <path d="M 4.695412158966064 32.41083908081055 C 5.464751243591309 25.71772956848145 10.22384166717529 20.54850959777832 15.96149921417236 20.54850959777832 C 21.69929504394531 20.54850959777832 26.45847320556641 25.71744155883789 27.22783088684082 32.41055297851563 C 29.59673881530762 28.97859764099121 30.92153930664063 24.57113265991211 30.92153930664063 19.95055961608887 C 30.92153930664063 14.84793090820313 29.33926010131836 10.05986022949219 26.46617889404297 6.468360424041748 C 23.64521980285645 2.942030429840088 19.91457939147949 1.000000476837158 15.96149921417236 1.000000476837158 C 12.0080099105835 1.000000476837158 8.276839256286621 2.942060470581055 5.455399513244629 6.468320369720459 C 2.582289695739746 10.06019020080566 0.9999996423721313 14.84827041625977 0.9999996423721313 19.95055961608887 C 0.9999996423721313 24.57255554199219 2.325414419174194 28.98013877868652 4.695412158966064 32.41083908081055 M 26.31453895568848 35.13626098632813 L 26.31453895568848 35.13394927978516 C 26.32930946350098 34.87380218505859 26.33654975891113 34.59917068481445 26.33654975891113 34.31758880615234 C 26.33654975891113 27.27688980102539 21.68235015869141 21.54850959777832 15.96149921417236 21.54850959777832 C 10.24121952056885 21.54850959777832 5.586729526519775 27.27688980102539 5.586729526519775 34.31758880615234 C 5.586729526519775 34.59164047241211 5.593969821929932 34.86685180664063 5.607869625091553 35.13394927978516 C 2.043489694595337 31.33549118041992 -3.46679684071205e-07 25.80120086669922 -3.46679684071205e-07 19.95055961608887 C -3.46679684071205e-07 14.62253093719482 1.660229682922363 9.612010955810547 4.674489498138428 5.843680381774902 C 7.689609527587891 2.075360536575317 11.69808959960938 4.931640660288394e-07 15.96149921417236 4.931640660288394e-07 C 20.224609375 4.931640660288394e-07 24.23250961303711 2.075360536575317 27.2470588684082 5.843680381774902 C 30.26160049438477 9.612010955810547 31.92153930664063 14.62253093719482 31.92153930664063 19.95055961608887 C 31.92153930664063 25.80004119873047 29.87833976745605 31.33491134643555 26.31570053100586 35.13510131835938 L 26.31453895568848 35.13626098632813 Z" stroke="none" fill="#707070"/>
          </g>
          <g id="Subtraction_10" data-name="Subtraction 10" transform="translate(55.066)" fill="#7e5115">
            <path d="M 26.82784461975098 33.78313446044922 C 26.59708213806152 26.71342849731445 21.81125450134277 21.04850959777832 15.96149921417236 21.04850959777832 C 10.111891746521 21.04850959777832 5.326208114624023 26.71288681030273 5.095451831817627 33.78258895874023 C 2.161391496658325 30.13819122314453 0.4999996423721313 25.17606925964355 0.4999996423721313 19.95055961608887 C 0.4999996423721313 14.73518085479736 2.121199607849121 9.836180686950684 5.064939498901367 6.15600061416626 C 7.983239650726318 2.508690595626831 11.85305976867676 0.5000004768371582 15.96149921417236 0.5000004768371582 C 20.06955909729004 0.5000004768371582 23.93885040283203 2.508680582046509 26.85661888122559 6.156020641326904 C 29.80035018920898 9.835840225219727 31.42153930664063 14.73483085632324 31.42153930664063 19.95055961608887 C 31.42153930664063 25.17480087280273 29.76090240478516 30.13697814941406 26.82784461975098 33.78313446044922 Z" stroke="none"/>
            <path d="M 4.695412158966064 32.41083908081055 C 5.464751243591309 25.71772956848145 10.22384166717529 20.54850959777832 15.96149921417236 20.54850959777832 C 21.69929504394531 20.54850959777832 26.45847320556641 25.71744155883789 27.22783088684082 32.41055297851563 C 29.59673881530762 28.97859764099121 30.92153930664063 24.57113265991211 30.92153930664063 19.95055961608887 C 30.92153930664063 14.84793090820313 29.33926010131836 10.05986022949219 26.46617889404297 6.468360424041748 C 23.64521980285645 2.942030429840088 19.91457939147949 1.000000476837158 15.96149921417236 1.000000476837158 C 12.0080099105835 1.000000476837158 8.276839256286621 2.942060470581055 5.455399513244629 6.468320369720459 C 2.582289695739746 10.06019020080566 0.9999996423721313 14.84827041625977 0.9999996423721313 19.95055961608887 C 0.9999996423721313 24.57255554199219 2.325414419174194 28.98013877868652 4.695412158966064 32.41083908081055 M 26.31453895568848 35.13626098632813 L 26.31453895568848 35.13394927978516 C 26.32930946350098 34.87380218505859 26.33654975891113 34.59917068481445 26.33654975891113 34.31758880615234 C 26.33654975891113 27.27688980102539 21.68235015869141 21.54850959777832 15.96149921417236 21.54850959777832 C 10.24121952056885 21.54850959777832 5.586729526519775 27.27688980102539 5.586729526519775 34.31758880615234 C 5.586729526519775 34.59164047241211 5.593969821929932 34.86685180664063 5.607869625091553 35.13394927978516 C 2.043489694595337 31.33549118041992 -3.46679684071205e-07 25.80120086669922 -3.46679684071205e-07 19.95055961608887 C -3.46679684071205e-07 14.62253093719482 1.660229682922363 9.612010955810547 4.674489498138428 5.843680381774902 C 7.689609527587891 2.075360536575317 11.69808959960938 4.931640660288394e-07 15.96149921417236 4.931640660288394e-07 C 20.224609375 4.931640660288394e-07 24.23250961303711 2.075360536575317 27.2470588684082 5.843680381774902 C 30.26160049438477 9.612010955810547 31.92153930664063 14.62253093719482 31.92153930664063 19.95055961608887 C 31.92153930664063 25.80004119873047 29.87833976745605 31.33491134643555 26.31570053100586 35.13510131835938 L 26.31453895568848 35.13626098632813 Z" stroke="none" fill="#707070"/>
          </g>
          <g id="Subtraction_11" data-name="Subtraction 11" transform="translate(0.887 61.504)" fill="#7e5115">
            <path d="M 42.20766448974609 25.78266906738281 C 38.04993057250977 25.78266906738281 33.90802001953125 25.16515731811523 29.89700889587402 23.94730186462402 C 25.99865341186523 22.76192474365234 22.20048522949219 21.00234603881836 18.60821914672852 18.7175350189209 C 15.07856369018555 16.47158050537109 11.73539733886719 13.70945739746094 8.671663284301758 10.50793552398682 C 6.087441921234131 7.808411598205566 3.698687314987183 4.790816783905029 1.552255034446716 1.516348361968994 C 13.90048217773438 8.712772369384766 28.1845874786377 12.50602436065674 43.00605392456055 12.50602436065674 C 56.75459671020508 12.50602436065674 70.15667724609375 9.204339981079102 81.90452575683594 2.940049886703491 C 71.83256530761719 17.48541069030762 57.46385192871094 25.78266906738281 42.20766448974609 25.78266906738281 Z" stroke="none"/>
            <path d="M 42.20766448974609 25.28266906738281 C 56.69887161254883 25.28266906738281 70.38930511474609 17.70076370239258 80.28905487060547 4.336992740631104 C 68.921630859375 10.01905059814453 56.11943817138672 13.00602436065674 43.00605392456055 13.00602436065674 C 28.83594131469727 13.00602436065674 15.1524543762207 9.558486938476563 3.164089918136597 3.000791788101196 C 4.974398612976074 5.576887607574463 6.939003944396973 7.974913597106934 9.032896995544434 10.16224670410156 C 12.06889724731445 13.3347692489624 15.38083076477051 16.07126808166504 18.87655258178711 18.29563522338867 C 22.43062019348145 20.5561580657959 26.18743133544922 22.29672431945801 30.04227447509766 23.46886825561523 C 34.00615310668945 24.67241287231445 38.09918594360352 25.28266906738281 42.20766448974609 25.28266906738281 M 42.20766448974609 26.28266906738281 C 37.99958419799805 26.28266906738281 33.80859756469727 25.65751266479492 29.75174140930176 24.42573547363281 C 25.81134223937988 23.22756958007813 21.97175216674805 21.44943618774414 18.33987426757813 19.13942527770996 C 14.77694129943848 16.87229156494141 11.40259742736816 14.08486843109131 8.310419082641602 10.85363578796387 C 5.239386081695557 7.64556884765625 2.44326376914978 3.993124485015869 -2.917480514952331e-06 2.154032472390099e-06 C 12.67319679260254 7.853569030761719 27.54399681091309 12.00602436065674 43.00605392456055 12.00602436065674 C 57.37974166870117 12.00602436065674 71.36930084228516 8.376179695129395 83.46339416503906 1.511613249778748 C 73.25780487060547 17.25525856018066 58.22014236450195 26.28266906738281 42.20766448974609 26.28266906738281 Z" stroke="none" fill="#707070"/>
          </g>
        </g>
      </g>
      <path id="Subtraction_12" data-name="Subtraction 12" d="M219.962,112.637a122.74,122.74,0,0,0-219.927,0C.011,111.768,0,110.881,0,110A110.027,110.027,0,0,1,211.353,67.182,109.334,109.334,0,0,1,220,110c0,.879-.011,1.768-.031,2.637Z" transform="translate(0)" fill="#dfdfdf"/>
      <path id="Subtraction_13" data-name="Subtraction 13" d="M.136,73.381v-.006C.045,72.221,0,71.049,0,69.9c0-9.437,2.929-18.59,8.706-27.209,5.581-8.324,13.57-15.8,23.745-22.215A127.406,127.406,0,0,1,67.669,5.492,167.526,167.526,0,0,1,110.8,0c27.023,0,53.225,8.107,73.776,22.83,19.241,13.783,31.651,32.107,34.05,50.27-8.162-13.66-22.669-25.354-41.956-33.812-19.716-8.648-42.954-13.219-67.2-13.219-24.336,0-47.642,4.6-67.4,13.3C22.736,47.887,8.238,59.645.141,73.377Z" transform="translate(0.535 38.077)" fill="#212121" opacity="0.46"/>
    </g>
  </g>
</svg>
