<svg xmlns="http://www.w3.org/2000/svg" width="78.734" height="78.734" viewBox="0 0 78.734 78.734">
  <path id="facebook-icon" d="M54.913,79.322H74.977a4.346,4.346,0,0,0,4.345-4.346V4.933A4.345,4.345,0,0,0,74.977.588H4.934A4.345,4.345,0,0,0,.588,4.933V74.976a4.345,4.345,0,0,0,4.346,4.346H42.642V48.837H32.382V36.955h10.26V28.192c0-10.169,6.211-15.707,15.283-15.707a84.114,84.114,0,0,1,9.169.468V23.581l-6.292,0c-4.933,0-5.889,2.344-5.889,5.785v7.586H66.68L65.147,48.837H54.913Z" transform="translate(-0.588 -0.588)" fill="#fff"/>
</svg>
