<svg id="Symbol" xmlns="http://www.w3.org/2000/svg" width="78.75" height="78.734" viewBox="0 0 78.75 78.734">
  <g id="Group_5" data-name="Group 5" transform="translate(0 0)">
    <path id="Path_4" data-name="Path 4" d="M24.789,12.365A20.194,20.194,0,0,0,13.265,23.873a28.791,28.791,0,0,0-1.825,9.556c-.192,4.194-.24,5.538-.24,16.23s.048,12.037.24,16.23a29.2,29.2,0,0,0,1.825,9.556A20.16,20.16,0,0,0,24.789,86.969a28.792,28.792,0,0,0,9.556,1.825c4.194.192,5.538.24,16.23.24s12.037-.048,16.23-.24a29.206,29.206,0,0,0,9.556-1.825A20.16,20.16,0,0,0,87.886,75.445a28.791,28.791,0,0,0,1.825-9.556c.192-4.194.24-5.538.24-16.23s-.048-12.037-.24-16.23a29.2,29.2,0,0,0-1.825-9.556A20.107,20.107,0,0,0,76.377,12.365a28.792,28.792,0,0,0-9.556-1.825c-4.194-.192-5.538-.24-16.23-.24s-12.037.048-16.23.24A28.409,28.409,0,0,0,24.789,12.365Zm41.7,5.25A21.689,21.689,0,0,1,73.8,18.975a13.027,13.027,0,0,1,7.475,7.475,21.688,21.688,0,0,1,1.361,7.315c.192,4.146.224,5.394.224,15.91s-.048,11.764-.224,15.91A21.688,21.688,0,0,1,81.275,72.9,13.027,13.027,0,0,1,73.8,80.374a21.69,21.69,0,0,1-7.315,1.361c-4.146.192-5.394.224-15.91.224s-11.765-.048-15.91-.224a21.69,21.69,0,0,1-7.315-1.361A13.027,13.027,0,0,1,19.875,72.9a21.689,21.689,0,0,1-1.361-7.315c-.192-4.146-.224-5.394-.224-15.91s.048-11.764.224-15.91a21.689,21.689,0,0,1,1.361-7.315,13.027,13.027,0,0,1,7.475-7.475,21.69,21.69,0,0,1,7.315-1.361c4.146-.192,5.394-.224,15.91-.224S62.34,17.423,66.485,17.615Z" transform="translate(-11.2 -10.3)" fill="#000630"/>
    <path id="Path_5" data-name="Path 5" d="M130.9,150.216A20.216,20.216,0,1,0,151.116,130,20.216,20.216,0,0,0,130.9,150.216Zm33.341,0a13.125,13.125,0,1,1-13.125-13.125A13.122,13.122,0,0,1,164.241,150.216Z" transform="translate(-111.741 -110.841)" fill="#000630"/>
    <ellipse id="Ellipse_2" data-name="Ellipse 2" cx="4.722" cy="4.722" rx="4.722" ry="4.722" transform="translate(55.686 13.637)" fill="#000630"/>
  </g>
</svg>
