<svg xmlns="http://www.w3.org/2000/svg" width="151.093" height="49" viewBox="0 0 151.093 49">
  <g id="logo" transform="translate(3.907)">
    <g id="Group_111" data-name="Group 111">
      <text id="space" transform="translate(-3.907 39)" fill="#fefefe" font-size="39" font-family="Quicksand-Bold, Quicksand" font-weight="700"><tspan x="0" y="0">space</tspan></text>
      <g id="Group_110" data-name="Group 110" transform="translate(114 16)">
        <g id="Group_109" data-name="Group 109" transform="translate(0 1.134)">
          <path id="Subtraction_4" data-name="Subtraction 4" d="M0,30.512H0C12.5,26.165,20.262,18.061,20.262,9.36A16.331,16.331,0,0,0,17.182,0c3.324,3.283,5.08,7.062,5.08,10.929,0,4.325-2.162,8.478-6.251,12.009a31.243,31.243,0,0,1-7.046,4.5A44.4,44.4,0,0,1,0,30.512Z" transform="translate(0 0)" fill="#fff"/>
        </g>
        <path id="Subtraction_5" data-name="Subtraction 5" d="M11.547,27.682c-4.106,0-8.1-1.872-11.547-5.412a16.889,16.889,0,0,0,9.593,3.113C19.858,25.383,28.9,15.42,32.632,0a48.583,48.583,0,0,1-2.684,10.991,35.317,35.317,0,0,1-4.717,8.775,21.94,21.94,0,0,1-6.288,5.812A14.42,14.42,0,0,1,11.547,27.682Z" transform="translate(33.187 0) rotate(90)" fill="#fff"/>
      </g>
    </g>
  </g>
</svg>
