<svg id="Pinterest" xmlns="http://www.w3.org/2000/svg" width="78.158" height="78.099" viewBox="0 0 78.158 78.099">
  <g id="Group_6" data-name="Group 6" transform="translate(0 0)">
    <path id="Path_6" data-name="Path 6" d="M44.379,5.4A39.075,39.075,0,0,0,30.12,80.858c-.352-3.11-.645-7.8.117-11.207.7-3.051,4.577-19.422,4.577-19.422a14.114,14.114,0,0,1-1.174-5.809c0-5.457,3.169-9.506,7.041-9.506,3.345,0,4.929,2.523,4.929,5.516,0,3.345-2.112,8.391-3.227,13.026-.939,3.873,1.936,7.041,5.809,7.041,6.924,0,12.264-7.335,12.264-17.9,0-9.33-6.748-15.9-16.312-15.9-11.09,0-17.662,8.332-17.662,16.958a15,15,0,0,0,2.934,8.919,1.361,1.361,0,0,1,.293,1.115c-.293,1.232-.939,3.873-1.056,4.4-.176.7-.587.88-1.291.528-4.87-2.288-7.921-9.388-7.921-15.139,0-12.322,8.978-23.647,25.818-23.647,13.554,0,24.058,9.682,24.058,22.532,0,13.437-8.508,24.292-20.244,24.292-3.931,0-7.687-2.054-8.978-4.459,0,0-1.936,7.452-2.406,9.271-.88,3.4-3.286,7.628-4.87,10.268A39.049,39.049,0,1,0,44.379,5.4Z" transform="translate(-5.3 -5.4)" fill="#fff"/>
  </g>
</svg>
