<svg id="search_-_small" data-name="search - small" xmlns="http://www.w3.org/2000/svg" width="33.192" height="35.34" viewBox="0 0 33.192 35.34">
  <g id="Group_121" data-name="Group 121" transform="translate(0 35.34) rotate(-90)">
    <g id="Group_90" data-name="Group 90" transform="matrix(0.777, -0.629, 0.629, 0.777, 0, 19.905)">
      <path id="Subtraction_3" data-name="Subtraction 3" d="M23.08,17.1a8.477,8.477,0,0,1-5.105-1.691,8.621,8.621,0,0,1-3.052-4.293H2.138a2.137,2.137,0,1,1,0-4.274H14.7A8.549,8.549,0,1,1,23.08,17.1Zm0-15.386a6.839,6.839,0,1,0,6.838,6.838A6.846,6.846,0,0,0,23.08,1.71Z" transform="translate(0 0)" fill="#fff"/>
    </g>
  </g>
</svg>
