<svg id="layer1" xmlns="http://www.w3.org/2000/svg" width="91.598" height="74.439" viewBox="0 0 91.598 74.439">
  <path id="path5" d="M373.919,405.119a37.568,37.568,0,0,1-10.793,2.959,18.848,18.848,0,0,0,8.263-10.4,37.617,37.617,0,0,1-11.934,4.56,18.809,18.809,0,0,0-32.023,17.14A53.352,53.352,0,0,1,288.7,399.747a18.812,18.812,0,0,0,5.816,25.089,18.72,18.72,0,0,1-8.512-2.35c0,.078,0,.157,0,.236a18.806,18.806,0,0,0,15.075,18.427,18.84,18.84,0,0,1-8.487.322,18.811,18.811,0,0,0,17.555,13.05,37.706,37.706,0,0,1-23.339,8.045,38.2,38.2,0,0,1-4.483-.263,53.19,53.19,0,0,0,28.807,8.443c34.566,0,53.469-28.635,53.469-53.469q0-1.222-.055-2.431a38.181,38.181,0,0,0,9.377-9.727Z" transform="translate(-282.32 -396.307)" fill="#fff"/>
</svg>
