<svg xmlns="http://www.w3.org/2000/svg" width="78.73" height="63.969" viewBox="0 0 78.73 63.969">
  <g id="layer1" transform="translate(-77.083 -85.403)">
    <path id="path5" d="M155.81,92.971a32.289,32.289,0,0,1-9.277,2.543,16.2,16.2,0,0,0,7.1-8.939,32.33,32.33,0,0,1-10.258,3.918,16.167,16.167,0,0,0-27.523,14.731A45.854,45.854,0,0,1,82.563,88.352a16.167,16.167,0,0,0,5,21.566A16.089,16.089,0,0,1,80.25,107.9v.2a16.164,16.164,0,0,0,12.958,15.836,16.193,16.193,0,0,1-7.3.276A16.167,16.167,0,0,0,101,135.427a32.406,32.406,0,0,1-20.059,6.916,32.866,32.866,0,0,1-3.859-.227,45.938,45.938,0,0,0,70.72-38.694q0-1.049-.049-2.089a32.809,32.809,0,0,0,8.059-8.361Z" transform="translate(0 0)"/>
  </g>
</svg>
